<?xml version="1.0" encoding="UTF-8" standalone="no" ?>
<!DOCTYPE svg PUBLIC "-//W3C//DTD SVG 1.1//EN" "http://www.w3.org/Graphics/SVG/1.1/DTD/svg11.dtd">
<svg xmlns="http://www.w3.org/2000/svg" xmlns:xlink="http://www.w3.org/1999/xlink" version="1.1" width="1080" height="1080" viewBox="0 0 1080 1080" xml:space="preserve">
<desc>Created with Fabric.js 5.2.4</desc>
<defs>
</defs>
<g transform="matrix(1 0 0 1 540 540)" id="0b20750a-10f2-44e8-afc0-562acc0ef71c"  >
<rect style="stroke: none; stroke-width: 1; stroke-dasharray: none; stroke-linecap: butt; stroke-dashoffset: 0; stroke-linejoin: miter; stroke-miterlimit: 4; fill: rgb(255,255,255); fill-rule: nonzero; opacity: 1; visibility: hidden;" vector-effect="non-scaling-stroke"  x="-540" y="-540" rx="0" ry="0" width="1080" height="1080" />
</g>
<g transform="matrix(1 0 0 1 540 540)" id="f2a7fa82-4069-40cc-9ee1-c7316d86207f"  >
</g>
<g transform="matrix(1.67 0 0 1.67 540 540)"  >
<g style="" vector-effect="non-scaling-stroke"   >
		<g transform="matrix(0.56 0 0 0.56 7.98 -20.92)"  >
<path style="stroke: none; stroke-width: 1; stroke-dasharray: none; stroke-linecap: butt; stroke-dashoffset: 0; stroke-linejoin: miter; stroke-miterlimit: 4; fill: rgb(173,216,230); fill-rule: nonzero; opacity: 1;" vector-effect="non-scaling-stroke"  transform=" translate(-270.2, -218.8)" d="M 60.44 389.17 C 60.44 389.24 60.44 389.37 60.36 389.55 C 60.39 389.43 60.41 389.3 60.44 389.17 z M 439.9 405.6 C 436.6075260898853 405.5288887879339 433.35643418247537 404.8508717060966 430.31 403.6 L 373.53 383.47 L 373.10999999999996 383.3 C 371.87177841248274 382.7838462410279 370.5414134695282 382.52525868178355 369.19999999999993 382.54 C 367.9635387368534 382.5413634715245 366.73738520405334 382.76491632557094 365.5799999999999 383.20000000000005 C 364.19999999999993 383.72 351.7699999999999 388.39000000000004 338.7299999999999 391.97 C 331.6599999999999 393.91 307.0499999999999 400.24 287.2999999999999 400.24 C 236.8199999999999 400.24 189.6199999999999 380.84000000000003 154.4099999999999 345.61 C 119.66637940583112 311.07962630052634 100.18187649736058 264.0842007861207 100.29999999999998 215.10000000000008 C 100.29958709884319 202.46386675230215 101.66077738266902 189.86447491334286 104.36 177.52 C 113.15 136.89999999999998 136.43 99.94999999999999 169.91 73.51999999999998 C 204.25354373227313 46.58035192456561 246.6511524125653 31.958300986732446 290.3 31.99999999999997 C 342.51 32 391.16 52 427.3 88.18 C 461.46000000000004 122.45000000000002 480.18 167.51 480.03000000000003 215.05 C 480.00045340601275 250.37565598934998 469.4522263223602 284.8923792680348 449.73 314.20000000000005 L 449.54 314.48 L 448.8 315.48 C 448.63 315.71000000000004 448.46000000000004 315.93 448.3 316.16 L 448.15000000000003 316.43 C 447.7523525962414 317.10655892532367 447.3918194814107 317.80425726791276 447.07000000000005 318.52 L 462.81000000000006 374.46 C 463.505929684281 376.76781080300503 463.88275910983754 379.16000474560076 463.93000000000006 381.57 C 463.93797448539055 387.9455935857954 461.4088105070289 394.06235253688857 456.90058152195877 398.5705815219587 C 452.39235253688867 403.07881050702883 446.2755935857955 405.60797448539046 439.9000000000001 405.6 z" stroke-linecap="round" />
</g>
		<g transform="matrix(0.56 0 0 0.56 -50.22 51.75)"  >
<path style="stroke: none; stroke-width: 1; stroke-dasharray: none; stroke-linecap: butt; stroke-dashoffset: 0; stroke-linejoin: miter; stroke-miterlimit: 4; fill: rgb(173,216,230); fill-rule: nonzero; opacity: 1;" vector-effect="non-scaling-stroke"  transform=" translate(-166.73, -348)" d="M 299.87 425.39 C 297.7793221030271 421.32356442856286 294.0236913431885 418.36723700828173 289.58 417.28999999999996 C 283.8 415.76 277.06 416.02 271.90999999999997 415.64 C 223.28339872254017 412.25902019392754 177.5243626823255 391.3900296073524 143.08999999999997 356.89 C 112.47742918948543 326.44880416546647 92.58234129819337 286.88674281451654 86.39999999999998 244.16000000000003 C 85 234.42 85 232 85 232 C 84.99875037117266 225.34623475719954 80.87969736911325 219.387720916781 74.65544888253316 217.03584416720898 C 68.43120039595311 214.68396741763695 61.40105197322352 216.42967586254588 56.99999999999999 221.42 C 57 221.42 49.12 230 45.4 238.60999999999999 C 24.222260974746945 287.404838988453 28.33316074043946 343.48498615570895 56.40000000000003 388.66999999999996 C 59 393 59 395 58.42 399.5 C 55.690000000000005 413.61 50.910000000000004 438.5 48.42 451.40999999999997 C 46.74128015848499 459.9348596919128 49.80113085157403 468.70133192761284 56.42000000000001 474.33 L 56.88 474.71999999999997 C 61.18009471734447 478.13520937435203 66.50869290912881 479.9959896952926 72 480 C 75.08868410443569 480.0026415355661 78.14738534769295 479.39429984385157 81 478.21 L 134.51 457.56 C 136.35237409059417 456.85975857959824 138.3876259094058 456.85975857959824 140.23 457.56 C 161.29999999999998 465.4 183.23 469.56 204.01 469.56 C 229.9014627052968 469.58429876962117 255.47940069599827 463.89575989730656 278.91999999999996 452.9 C 284.37999999999994 450.34 292.91999999999996 447.56 297.91999999999996 441.78 C 301.78762741518955 437.1975532423261 302.5544888355459 430.7519846886644 299.86999999999995 425.39 z" stroke-linecap="round" />
</g>
</g>
</g>
</svg>