<svg viewBox="0 0 507 380" xmlns="http://www.w3.org/2000/svg" fill-rule="evenodd" clip-rule="evenodd" stroke-miterlimit="10"><path d="M58.55 238.055a5392.81 5392.81 0 01-2.504 6.811l-4.793-1.758a5392.81 5392.81 0 002.504-6.811l4.792 1.758zm-2.504 6.811c-1.238 3.375-2.483 6.756-3.722 10.13l-4.792-1.758 3.72-10.13 4.794 1.758zm-3.722 10.13l-.6.93-1.796-1.807 2.396.877zm-.6.93c-2.722 2.69-5.444 5.392-8.167 8.087l-3.592-3.614c2.722-2.694 5.444-5.396 8.167-8.087l3.592 3.614zm-8.167 8.087c-2.413 2.39-4.83 4.782-7.244 7.175l-3.593-3.613c2.414-2.393 4.83-4.786 7.245-7.176l3.592 3.614zm-7.244 7.175a165.351 165.351 0 01-1.81 1.772l-3.534-3.693c.735-.71 1.55-1.495 1.75-1.692l3.594 3.613zm-1.81 1.772c-3.27 3.15-3.916 3.774-2.976 9.395l-5.032.84c-1.387-8.286-.42-9.218 4.474-13.928l3.533 3.693zm-2.976 9.395c.76 4.53 2.264 9.149 4.63 13.647l-4.536 2.375a50.542 50.542 0 01-5.126-15.183l5.032-.839zm4.63 13.647c2.191 4.179 5.115 8.222 8.843 11.96l-3.617 3.594c-4.134-4.148-7.36-8.604-9.762-13.179l4.536-2.375zM45 307.962c4.769 4.783 12.554 10.707 20.659 13.786l-1.8 4.776c-8.854-3.368-17.312-9.794-22.476-14.968L45 307.963zm20.659 13.786c5.635 2.143 11.378 2.879 16.182.756l2.056 4.672c-6.194 2.743-13.255 1.924-20.038-.652l1.8-4.776zm16.182.756l4.931-2.185-1.44 5.199-2.465-.68-1.026-2.334zm3.492 3.014c-.638 2.32-1.39 4.699-2.251 7.081l-4.814-1.737a90.694 90.694 0 002.133-6.7l4.932 1.356zm-2.251 7.081a90.517 90.517 0 01-2.743 6.728l-4.654-2.119a84.482 84.482 0 002.583-6.346l4.814 1.737zm-2.743 6.728c-4.318 9.468.208 14.455 7.224 17.656l-2.12 4.654c-9.595-4.38-15.765-11.257-9.758-24.429l4.654 2.12zm7.224 17.656c4.48 2.043 9.908 3.454 14.947 4.768l-1.276 4.932c-5.296-1.377-10.997-2.865-15.79-5.046l2.119-4.654zm14.947 4.768c1.331.347 2.625.684 3.55.933l-1.296 4.932a396.365 396.365 0 00-3.53-.933l1.276-4.932zm3.55.933c6.08 1.644 16.588 4.658 26.035 5.258l-.319 5.112c-9.898-.628-20.738-3.739-27.012-5.438l1.297-4.932zm26.035 5.258c8.538.54 16.15-.898 17.912-7.436l4.935 1.297c-2.615 9.704-12.36 11.934-23.166 11.25l.32-5.111zm17.912-7.436c.933-3.464 1.474-6.138 1.7-8.791l5.111.42c-.246 2.882-.842 5.826-1.876 9.668l-4.935-1.297zm1.7-8.791c.225-2.663.131-5.25-.195-8.535l5.07-.478c.372 3.693.48 6.561.236 9.433l-5.111-.42zm-.195-8.535l.198-1.276 2.338 1.037-2.536.24zm.198-1.276c3.44-7.678 4.855-9.752 7.36-13.418l4.213 2.879c-2.313 3.388-3.624 5.306-6.898 12.616l-4.675-2.077zm7.36-13.418c.256-.374.474-.69 1.116-1.647l4.234 2.854c-.163.243-.693 1.023-1.137 1.672l-4.214-2.879zm1.116-1.647c1.952-2.896 2.85-4.827 3.138-6.828l5.053.7c-.412 2.861-1.543 5.403-3.957 8.982l-4.234-2.854zm3.138-6.828c.299-2.098-.003-4.606-.457-8.438l5.07-.58c.503 4.208.836 6.958.44 9.718l-5.053-.7zm-.457-8.438a172.018 172.018 0 00-.302-2.414l5.053-.641c.156 1.151.26 1.963.319 2.476l-5.07.579zm-.302-2.414c-.056-.433-.184-1.307-.36-2.52l5.052-.74c.08.545.198 1.391.36 2.619l-5.052.641zm-.36-2.52l-.497-3.41 3.402.513-.378 2.528-2.528.368zm2.905-2.897a149.483 149.483 0 0021.388 1.672l-.021 5.112a154.93 154.93 0 01-22.123-1.73l.756-5.054zm21.388 1.672c7.078.045 14.121-.402 21.22-1.283l.6 5.073c-7.317.906-14.565 1.367-21.841 1.322l.02-5.112zm21.22-1.283l1.578 4.754-1.276-2.22-.302-2.534zm1.578 4.754c-4.123 2.404-8.243 4.52-13.497 7.22l-2.338-4.553c5.188-2.667 9.25-4.754 13.28-7.102l2.555 4.435zm-13.497 7.22c-.385.195-.777.4-1.173.6l-2.337-4.553c.399-.201.79-.406 1.172-.6l2.338 4.554zm-1.173.6c-5.4 2.779-5.448 8.608-3.544 14.712l-4.869 1.519c-2.615-8.365-2.264-16.494 6.076-20.784l2.337 4.554zm-3.544 14.712c2.164 6.929 6.76 14.219 9.645 18.665l-4.276 2.774c-3.038-4.682-7.883-12.38-10.238-19.92l4.87-1.52zm9.645 18.665c6.037 9.304 11.732 17.138 18.269 21.144l-2.656 4.352c-7.394-4.529-13.494-12.87-19.89-22.722l4.277-2.774zm18.269 21.144c6.177 3.787 13.4 4.137 22.969-1.04l2.413 4.515c-11.43 6.187-20.284 5.632-28.038.877l2.656-4.352zm22.969-1.04c4.518-2.445 6.037-5.102 8.08-8.684l4.453 2.517c-2.47 4.325-4.3 7.533-10.12 10.682l-2.413-4.515zm8.08-8.684c.815-1.426 1.706-2.986 3.014-4.939l4.234 2.837c-1.047 1.56-1.96 3.16-2.795 4.62l-4.453-2.518zm3.014-4.939l.887-.825 1.228 2.244-2.115-1.419zm.887-.825c1.492-.822 7.87-6.086 14.07-11.212l3.253 3.936c-6.409 5.3-13.005 10.747-14.867 11.767l-2.456-4.491zm14.07-11.212c3.19-2.636 6.34-5.237 7.973-6.558l3.215 3.995a960.291 960.291 0 00-7.935 6.499l-3.253-3.936zm7.973-6.558l1.96-1.582 1.615 1.943-1.97 1.636-1.605-1.997zm3.575.36c1.02 1.225 2.63 1.98 4.821 2.504l-1.176 4.974c-3.267-.784-5.777-2.04-7.58-4.204l3.935-3.273zm4.821 2.504c2.518.6 5.823.895 9.825 1.183l-.36 5.112c-4.197-.302-7.7-.617-10.64-1.321l1.175-4.974zm9.825 1.183c3.142.229 13.171.225 19.65.222v5.112c-6.617.003-16.865.007-20.007-.222l.357-5.112zm19.65.222c2.052 0 3.759 0 4.782.003l-.021 5.112c-1.02-.003-2.719-.003-4.762-.003v-5.112zm4.782.003c6.034.039 10.82-.228 13.98-2.018l2.517 4.453c-4.169 2.362-9.686 2.722-16.518 2.677l.02-5.112zm13.98-2.018c2.888-1.637 4.622-4.859 5.056-10.886l5.111.36c-.575 7.998-3.207 12.461-7.65 14.979l-2.518-4.453zm5.056-10.886c.218-3.097.274-4.942-.077-6.523l4.994-1.1c.493 2.24.448 4.429.194 7.984l-5.111-.36zm-.077-6.523c-.347-1.585-1.168-3.229-2.687-5.927l4.473-2.497c1.752 3.11 2.716 5.088 3.208 7.324l-4.994 1.1zm-2.687-5.927l-.32-1.19 2.556-.058-2.236 1.248zm-.32-1.19l-.294-11.007 5.112-.118.294 11.004-5.111.121zm-.294-11.007c-.097-3.666-.198-7.338-.292-11.004l5.112-.121c.094 3.669.194 7.338.292 11.007l-5.112.118zm-.292-11.004c-.107-3.94-.534-7.099-1.31-10.171l4.952-1.239c.874 3.455 1.352 6.964 1.47 11.289l-5.112.121zm-1.31-10.171c-.788-3.097-1.956-6.194-3.538-9.954l4.713-1.98c1.661 3.957 2.906 7.259 3.777 10.695l-4.952 1.239zm-3.538-9.954c-1.116-2.66-2.077-5.247-3.013-7.778l4.792-1.759c.895 2.414 1.807 4.88 2.934 7.557l-4.713 1.98zm1.78-9.547v.01l-2.397.878 2.396-.888zm-4.793 1.78c-1.464-3.94-2.879-7.766-4.96-11.872l4.575-2.296c2.18 4.311 3.658 8.289 5.177 12.388l-4.792 1.78zm-4.96-11.872l-.232-1.588 2.518.44-2.286 1.148zm-.232-1.588c.253-1.426.465-2.747.624-3.947l5.053.638c-.208 1.56-.423 2.952-.642 4.19l-5.035-.881zm.624-3.947c.146-1.089.291-2.452.44-4.113l5.112.42a103.45 103.45 0 01-.499 4.331l-5.053-.638zm.44-4.113l.476-5.344 3.85 3.707-1.77 1.845-2.555-.208zm4.325-1.637c2.5 2.41 5.008 4.824 7.508 7.235l-3.533 3.693-7.512-7.234 3.537-3.694zm7.508 7.235l5.615 5.41-3.534 3.696-5.614-5.413 3.533-3.693zm5.615 5.41c4.054 3.905 7.758 7.452 11.868 9.876l-2.598 4.415c-4.599-2.715-8.517-6.468-12.804-10.595l3.534-3.696zm11.868 9.876c3.95 2.334 8.406 3.687 14.197 3.413l.24 5.112c-6.926.326-12.277-1.304-17.035-4.11l2.598-4.415zm14.197 3.413c6.25-.295 12.999-2.976 18.606-7.116l3.038 4.113c-6.391 4.713-14.15 7.771-21.404 8.115l-.24-5.112zm18.606-7.116c5.355-3.947 9.624-9.187 11.358-14.888l4.893 1.477c-2.07 6.808-7.033 12.963-13.213 17.524l-3.038-4.113zm11.358-14.888c.596-1.97 1.196-3.94 1.793-5.906l4.893 1.477c-.596 1.966-1.196 3.936-1.793 5.906l-4.893-1.477zm1.793-5.906c.693-2.293 1.39-4.585 2.088-6.874l4.893 1.477c-.697 2.29-1.394 4.585-2.088 6.874l-4.893-1.477zm2.088-6.874l.665-2.192 2.248.423-.468 2.508-2.445-.739zm2.913-1.769c10.352 1.96 21.623 2.643 32.457 1.505l.499 5.074c-11.326 1.186-23.097.475-33.893-1.564l.937-5.015zm32.457 1.505c9.516-.998 18.696-3.412 26.585-7.622l2.397 4.515c-8.476 4.522-18.308 7.113-28.483 8.181l-.5-5.074zm26.585-7.622c11.556-6.17 20.236-15.277 26.485-26.104l4.432 2.535c-6.714 11.632-16.056 21.433-28.52 28.084l-2.397-4.515zm26.485-26.104v-.01l2.216 1.28-2.216-1.27zm0-.01c7.14-12.367 11.14-26.964 12.662-41.998l5.074.48c-1.596 15.761-5.799 31.076-13.304 44.074l-4.432-2.556zm12.662-41.998c1.241-12.252.555-28.96-2.012-45.122l5.036-.797c2.629 16.573 3.33 33.757 2.05 46.398l-5.074-.479zm-2.012-45.122c-2.26-14.253-5.982-28.038-11.114-37.867l4.532-2.358c5.39 10.314 9.274 24.654 11.618 39.428l-5.036.797zM487.353 74.8c-.403-.77-1.072-1.612-1.929-2.458l3.572-3.656c1.235 1.218 2.234 2.497 2.89 3.756l-4.533 2.358zm-1.929-2.458c-2.191-2.16-5.448-4.21-8.819-5.369l1.658-4.834c4.096 1.411 8.056 3.908 10.733 6.547l-3.572 3.656zm-8.819-5.369c-3.128-1.078-6.28-1.373-8.534-.197l-2.355-4.533c3.63-1.9 8.205-1.595 12.547-.104l-1.658 4.834zm-8.534-.197a5.106 5.106 0 00-1.3.964l-3.656-3.576c.78-.79 1.657-1.429 2.6-1.921l2.356 4.533zm-1.3.964c-2.092 2.119-3.927 4.796-5.765 7.484l-4.213-2.879c1.987-2.903 3.967-5.795 6.322-8.18l3.655 3.575zm-5.765 7.484c-2.417 3.53-4.848 7.078-7.993 9.765l-3.312-3.894c2.656-2.272 4.88-5.518 7.092-8.75l4.213 2.879zm-7.993 9.765c-3.85 3.288-8.313 5.081-12.457 6.742l-1.897-4.751c3.77-1.512 7.827-3.142 11.042-5.885l3.312 3.894zm-12.457 6.742c-.722.288-1.43.572-1.88.76l-1.939-4.734c.794-.326 1.36-.552 1.922-.777l1.897 4.751zm-1.88.76l-2.442 1.005-.926-2.493 2.4-.881.968 2.369zm-3.368-1.488c-1.65-4.463-3.68-8.452-6.027-12.197l4.335-2.715a70.91 70.91 0 016.489 13.154l-4.797 1.758zm-6.027-12.197c-2.372-3.787-5.06-7.317-8.014-10.834l3.915-3.277c3.118 3.714 5.948 7.428 8.434 11.396l-4.335 2.715zm-8.014-10.834a41.796 41.796 0 00-6.884-6.575l3.093-4.054a46.842 46.842 0 017.706 7.352l-3.915 3.277zm-6.884-6.575c-2.386-1.818-5.098-3.52-8.261-5.5l2.712-4.332c3.204 2.004 5.954 3.731 8.642 5.778l-3.093 4.054zm-8.261-5.5c-8.913-5.58-16.383-12.135-24.006-18.821l3.354-3.853c7.463 6.547 14.774 12.96 23.364 18.342l-2.712 4.331zm-24.006-18.821c-3.207-2.813-6.443-5.653-10.064-8.636l3.257-3.953c3.35 2.76 6.773 5.764 10.161 8.736l-3.354 3.853zm-10.064-8.636c-16.882-13.92-32.516-20.662-49.12-21.71l.319-5.111c17.725 1.117 34.295 8.22 52.058 22.868l-3.257 3.953zm-49.12-21.71c-16.73-1.05-34.607 3.635-55.831 12.569l-1.977-4.713c21.942-9.235 40.53-14.073 58.13-12.967l-.322 5.112zM267.1 19.299c-10.002 4.206-17.406 9.162-23.829 15.1l-3.454-3.756c6.85-6.333 14.715-11.6 25.306-16.057l1.977 4.713zm-23.829 15.1c-6.471 5.985-12.034 13.056-18.273 21.404l-4.096-3.055c6.392-8.553 12.114-15.815 18.915-22.105l3.454 3.755zm-18.273 21.404l-.725.964-1.193.062-.131-2.556 2.05 1.53zm-1.918 1.026c-3.554.184-6.533.614-9.492 1.8l-1.897-4.754c3.583-1.433 7.05-1.946 11.13-2.157l.26 5.111zm-9.492 1.8c-3.006 1.2-6.103 3.212-9.897 6.558l-3.375-3.832c4.27-3.77 7.835-6.065 11.375-7.48l1.897 4.754zm-9.897 6.558a257.585 257.585 0 00-8.566 7.925l-3.555-3.673a254.331 254.331 0 018.746-8.084l3.375 3.832zm-8.566 7.925l-.01.01-1.77-1.845 1.78 1.838v-.003zm-.01.01a306.679 306.679 0 00-8.133 8.184l-3.697-3.533a308.323 308.323 0 018.296-8.344l3.533 3.693zm-8.133 8.184l-1.45.75-.398-2.515 1.848 1.765zm-1.45.75c-19.979 3.183-36.17 6.679-50.632 12.28l-1.835-4.772c14.784-5.726 31.302-9.295 51.673-12.54l.794 5.032zm-50.632 12.28c-14.337 5.555-26.988 13.21-40.004 24.747l-3.374-3.835c13.498-11.965 26.638-19.91 41.543-25.684l1.835 4.772zm-40.004 24.747c-5.27 4.675-9.82 9.593-13.785 14.788l-4.054-3.094c4.18-5.476 8.951-10.64 14.465-15.53l3.374 3.836zM81.112 133.87c-3.97 5.195-7.38 10.698-10.376 16.532l-4.553-2.317c3.12-6.08 6.696-11.836 10.875-17.309l4.054 3.094zm-10.376 16.532l-.378.551-1.897-1.71 2.275 1.159zm-.378.551c-2.906 3.211-5.809 6.464-8.92 9.267l-3.416-3.815c3.007-2.705 5.771-5.806 8.542-8.868l3.794 3.416zm-8.92 9.267c-3.26 2.937-6.797 5.434-10.882 7.008l-1.838-4.775c3.409-1.314 6.45-3.478 9.304-6.048l3.416 3.815zm-10.882 7.008h-.01l-.91-2.39.92 2.39zm-.01 0c-3.281 1.26-4.884 1.89-6.7 1.12l1.976-4.712c.083.034.909-.417 2.906-1.183l1.817 4.775zm-6.7 1.12l-.011-.01.999-2.344-.989 2.354zm-.011-.01c-1.915-.811-2.449-2.386-3.635-5.549l4.793-1.779c.673 1.8.659 2.56.84 2.636l-1.998 4.692zM40.2 162.79l-.669-1.782 1.536-1.155 1.53 2.046-2.397.891zm.867-2.937c4.7-3.527 5.143-10.557 5.57-17.326l5.112.319c-.5 7.917-1.02 16.136-7.626 21.103l-3.056-4.096zm5.57-17.326c.055-.888.114-1.765.163-2.438l5.112.36c-.07.923-.115 1.665-.163 2.397l-5.112-.32zm.163-2.438l.18-2.494 2.494.118-.118 2.556-2.556-.18zm2.674-2.376c4.217.201 6.138 3.173 8.208 6.385l-4.293 2.753c-1.325-2.05-2.552-3.95-4.155-4.026l.24-5.112zm8.208 6.385c.58.895 1.176 1.817 1.807 2.611l-3.995 3.177c-.794-1.006-1.46-2.032-2.105-3.035l4.293-2.753zm2.307 4.748l-1.172 5.233-3.323-4.193 1.998-1.588 2.497.548zm-4.994-1.1c.863-3.86 1.526-8.92.59-13.064l4.972-1.12c1.141 5.063.41 10.9-.568 15.284l-4.994-1.1zm.59-13.064c-.594-2.635-1.866-4.9-4.232-6.124l2.338-4.554c3.908 2.026 5.961 5.539 6.866 9.558l-4.973 1.12zm-4.232-6.124l-2.021-1.048.794-2.118 2.396.887-1.169 2.279zm-1.227-3.166c.378-1.01.926-2.41 1.491-3.853l4.751 1.858c-.44 1.128-.884 2.262-1.45 3.774l-4.792-1.78zm1.491-3.853c.753-1.922 1.526-3.895 2.34-6.208l4.835 1.675c-.728 2.07-1.588 4.259-2.424 6.391l-4.751-1.858zm4.328-7.887l4.286-.745-1.439 4.099-2.417-.84-.43-2.514zm.86 5.032c-4.952.86-15.852 6.975-23.763 15.19l-3.696-3.537c8.635-8.958 20.894-15.696 26.599-16.685l.86 5.032zm-23.763 15.19c-2.868 2.976-5.299 6.19-6.835 9.468l-4.633-2.14c1.81-3.86 4.567-7.536 7.772-10.865l3.696 3.537zm-6.835 9.468c-1.463 3.121-2.133 6.322-1.595 9.426l-5.032.856c-.732-4.206.114-8.406 1.994-12.422l4.633 2.14zm-1.595 9.426c.489 2.82 2.004 5.656 4.858 8.403l-3.537 3.693c-3.697-3.561-5.68-7.362-6.353-11.24l5.032-.856zm4.858 8.403l.708 1.238-2.476.61 1.768-1.848zm.708 1.238c.648 2.639 1.231 4.872 1.862 6.89l-4.869 1.516c-.662-2.101-1.27-4.432-1.945-7.189l4.952-1.217zm1.862 6.89c.607 1.929 1.27 3.666 2.098 5.39l-4.612 2.195c-.926-1.925-1.668-3.88-2.355-6.069l4.87-1.515zm2.098 5.39c1.838 3.822 4.745 6.152 8.098 7.227l-1.557 4.873c-4.633-1.488-8.642-4.679-11.153-9.905l4.612-2.195zm8.098 7.227c3.912 1.256 8.462.87 12.71-.787l1.86 4.755c-5.314 2.07-11.081 2.524-16.127.905l1.557-4.873zm12.71-.787l4.44-1.73-1.013 4.647-2.497-.541-.93-2.376zm3.427 2.917c-1.204 5.524-1.932 11.312-2.175 17.85l-5.112-.178c.254-6.828 1.023-12.91 2.296-18.75l4.99 1.078zm-2.175 17.85c-.243 6.54.004 13.878.746 22.496l-5.112.42c-.753-8.743-.999-16.272-.746-23.094l5.112.177zm.746 22.496c.187 2.195.416 4.217.673 6.066l-5.053.676c-.32-2.292-.569-4.408-.732-6.322l5.112-.42zm.673 6.066c.287 2.035.638 4.12 1.043 6.239l-5.01.957c-.413-2.14-.778-4.314-1.086-6.52l5.053-.676zm1.043 6.239l-.11 1.36-2.397-.882" fill-rule="nonzero"/><path d="M186.54 83.59l-33.654 5.47-30.71 13.46-26.079 16.406-24.82 30.29-14.021 14.85-13.556 4.997-3.586-8.767 6.27-9.048 1.408-12.762 4.2.166 4.588 4.186-1.238-12.998-5.088-3.413.156-4.955-12.051 6.818-10.91 12.873-2.275 11.503 4.667 9.215 4.353 15.65 8.85 4.194 9.308-.458 8.83-5.13-5.889 29.867 5.889 33.23L54.7 254.58l-21.234 22.875 3.776 13.667L47.3 306.961l18.967 13.348 10.06 1.377 11.185.378-6.978 28.645 25.66 10.519 31.971 4.206 10.935-7.15.842-19.352 12.2-20.19.84-15.988 29.447 2.105 27.341-2.525-27.341 16.407 4.626 19.771 17.25 26.922 16.827 7.151 13.459-5.469 5.469-10.938 28.184-21.453 5.47 4.63 44.168 1.682 8.832-7.15.843-12.621-2.944-5.469-2.105-34.073-14.722-29.447 2.521-13.043 8.837 4.63 24.82 23.135 12.197.843 13.463-5.47 13.46-10.095 6.73-21.876 39.543 2.525 23.977-9.256 19.352-18.086 13.879-26.082 3.367-30.71-2.944-35.754-7.574-31.968-7.571-10.096-10.515-3.367-18.512 20.19-16.823 5.893-14.725-24.401-14.722-13.46-7.994-5.049-31.971-26.502-25.66-13.88-25.66-2.104-29.866 5.05-26.083 9.671-18.089 14.726-14.302 17.246-14.721 4.207-25.66 24.397z" fill="#feeb50" stroke="#1f1917" stroke-width=".7629578"/><g fill="#fdf7ba"><path d="M88.936 159.54c-28.826 33.622-22.424 74.399-14.434 114.35-4.262-10.772-8.528-21.543-12.79-32.315L57 211.948c.448-10.099.895-20.198 1.346-30.296 4.04-9.648 8.077-19.3 12.117-28.948 6.059-8.978 12.12-17.953 18.18-26.932 9.425-7.855 18.851-15.71 28.274-23.565 10.324-4.262 20.648-8.528 30.972-12.79l36.355-4.713c-11.222 12.79-22.441 25.583-33.663 38.377-27.03 8.767-42.969 14.67-61.644 36.459"/><path d="M224.628 57.095c-20.041 19.553-30.986 34.299-43.738 57.191-9.121 16.376-19.355 32.148-28.948 48.295-4.848 8.174-5.309 15.027-6.759 24.453-4.713-5.611-9.422-11.222-14.135-16.83l6.731-20.201 22.892-41.068c16.158-15.932 32.315-31.867 48.476-47.803l15.485-4.037M323.604 8.613c-16.05 6.017-42.704 8-44.556 26.422-1.318 13.082.985 19.657 8.87 33.498-19.475-20.156-24.292-17.035-61.937-10.772 5.385-7.633 10.775-15.262 16.16-22.892l28.275-17.503c12.12-2.695 24.238-5.39 36.355-8.08 5.611-.226 11.222-.448 16.833-.673"/></g><g fill="#edd749"><path d="M367.89 257.802c5.345 3.298 5.23 5.687 4.336 7.948 4.217-1.685 8.43-3.374 12.644-5.056l8.191-11c2.03-5.227 4.054-10.45 6.083-15.676-2.59-1.945-5.18-3.894-7.772-5.84-11.319 1.443-22.639 2.89-33.958 4.335l-2.528 6.863c.239 3.253.482 6.503.721 9.756 1.086 1.925 2.168 3.853 3.253 5.781l5.056 2.528c1.325.122 2.65.243 3.975.36M364.735 199.734c-17.021 4.914-16.89 6.266-21.918 23.156 6.638-10.647 11.552-16.023 21.918-23.156M477.93 73.36c-3.028 1.398-5.972 2.07-7.862 4.838-4.075 5.962-7.564 10.973-14.298 15.155-3.392 2.109-6.902 3.472-10.498 4.592-2.982.93-4.775.1-7.314 1.925l4.519.79h9.967l12.283-7.584 7.224-7.588c1.994-4.044 3.985-8.088 5.979-12.128M206.764 111.127c-6.696 18.325-12.547 34.035-22.694 50.625 13.001-14.007 20.88-25.912 28.326-41.747 2.893-6.152 3.44-13.37 11.493-10.685.365 6.142 1.662 12.283 2.026 18.425 4.352-31.201 16.625-44.251 45.16-56.362-8.07.965-16.14 1.929-24.207 2.89-7.588 1.688-15.176 3.374-22.76 5.06-3.735 5.42-7.47 10.837-11.202 16.257-2.046 5.178-4.095 10.355-6.142 15.533M262.048 110.398c6.152 28.962 15.013 56.758 18.862 86.176 2.497 19.12 2.771 28.303-6.846 44.796-10.515-.68-17.038.507-27.206 3.84-40.479 13.268-63.693 32.779-90.969-6.534 8.705 4.103 17.413 8.205 26.12 12.311l18.62-3.662c10.96-6.381 21.918-12.762 32.877-19.147l25.653-5.056c2.767-11.562 5.538-23.125 8.31-34.683-2.05-15.298-4.097-30.592-6.143-45.885l-.724-21.679 1.446-10.477M331.754 289.596c-3.398 23.53 7.831 36.178 3.18 42.677-1.317 1.842-3.1 5.05-5.094 5.93-7.113 3.143-16.896-.589-17.597 1.253h-23.481l-9.395-3.975c4.817-5.66 9.634-11.323 14.45-16.979 4.7-10.237 9.396-20.475 14.091-30.712 3.014-10.356 6.024-20.711 9.034-31.07h4.696c3.374 10.959 6.745 21.918 10.116 32.876"/><path d="M292.289 221.2c1.907 10.686 5.219 13.224 10.244 23.566-3.343 16.868-8.719 36.934-15.183 51.822-2.73 6.277-4.928 9.738-9.738 14.59-8.115 8.195-16.324 15.335-25.528 22.441-6.627 5.108-11.253 2.546-19.428 1.387-3.478 6.305-4.439 9.804-10.837 13.005-9.842 4.921-18.65-5.684-26.374-11.92l16.73 26.132c3.852 3.614 7.705 7.224 11.558 10.837l9.756 1.447 13.005-7.949 6.866-13.005 14.451-10.84c5.903-5.057 11.802-10.117 17.705-15.173 3.731-5.3 7.466-10.599 11.198-15.898 3.37-6.263 6.745-12.526 10.116-18.786 4.335-13.005 8.67-26.013 13.008-39.018l1.082-14.812c-5.42-2.41-10.837-4.82-16.258-7.227-3.974-3.735-8.4-6.863-12.373-10.598M162.686 296.46c18.235 0 37.493-1.013 54.191-8.67 4.727-7.092 9.391-12.88 15.176-19.147-5.264 9.939-6.915 15.557-8.31 26.735-1.81 2.646-3.613 5.299-5.42 7.945-13.73.364-27.46.724-41.186 1.085l-13.369-1.446c-.482-.482-.964-.964-1.446-1.443l.364-5.06M160.158 283.815l-1.415-12.828c-3.114 18.752-2.365 31.32-10.997 48.115-6.447 7.47-14.385 14.267-23.475 17.905.767 4.606.996 7.484.552 10.859-1.602 12.148-25.9 6.783-35.894 6.297 16.036 4.13 32.072 8.258 48.105 12.385 3.613-1.443 7.223-2.89 10.837-4.335 1.207-6.985 2.41-13.97 3.614-20.954 3.37-6.263 6.745-12.526 10.116-18.786.603-3.853 1.203-7.71 1.807-11.562-1.086-9.031-2.168-18.065-3.253-27.096M133.063 177.955c-.503 9.117-1.093 12.918 2.927 20.97 5.112 10.238 11.389 19.855 16.944 29.971.6-6.745 1.204-13.49 1.807-20.232-7.227-10.238-14.451-20.475-21.678-30.71M58.896 246.836l-4.692 9.988c4.304 14.5 8.133 23.683 16.327 36.351-1.425 5.133-2.497 7.377-5.78 11.56-7.214-1.11-13.62-1.43-20.927-1.409l24.207 18.79c3.97-.725 7.945-1.446 11.923-2.171 3.97-3.975 7.945-7.945 11.92-11.92l-16.98-26.374C69.56 270.047 64.23 258.44 58.896 246.84M477.965 68.54c4.914 22.108 11.25 42.51 10.664 65.153-.722 27.778-6.139 62.871-31.878 79.625-28.822 18.762-62.663 9.887-94.288 1.848l38.658 15.898c12.044.603 24.089 1.203 36.13 1.806l24.57-7.227 19.147-15.897 14.451-30.345 5.42-35.044-4.338-34.323c-2.646-11.323-5.299-22.642-7.945-33.962-3.53-2.51-7.06-5.021-10.591-7.529M47.81 134.432c-13.086 8.517-18.225 12.255-16.793 28.042l3.912 14.184c1.848 1.248 3.697 2.5 5.542 3.749 2.285.76 4.567 1.522 6.85 2.282l12.39-2.934 6.357-19.726c-5.868 2.878-11.736 5.76-17.607 8.639h-4.075c-1.522-2.338-3.045-4.672-4.567-7.01l5.545-8.152 2.934-15.489c1.249.382 2.5.763 3.749 1.141l4.567 3.59c-.218-2.72-.437-5.435-.652-8.153l-3.1-5.216-3.097-2.612-1.956 7.665M341.395 10.07c11.615 10.785 25.868 20.159 35.159 33.337 3.596 5.105 7.591 7.713-.063 14.92 8.084-2.31 11.087-2.06 17.559-1.277 11.77 1.426 22.805 18.159 23.51 30.151-.14 1.12-3.271 3.666-12.375 6.176-.18.35-5.136-.676-5.01-.34.943 2.588 2.208 2.983 4.137 4.193.42 2.879.69 7.318 2.65 10.467 5.728-.1 11.322.52 16.93 1.633 1.89 3.128 1.602 6.26 1.446 9.392l6.502-1.082c-.603-4.939-1.203-9.877-1.803-14.812 1.925-3.253 3.85-6.506 5.778-9.756-2.771-6.263-5.539-12.526-8.31-18.79-5.299-5.056-10.598-10.112-15.897-15.172-.51-.024-1.02-.052-1.53-.076-5.957-3.659-11.919-7.314-17.877-10.97-9.717-7.951-19.438-15.903-29.155-23.859a76744.01 76744.01 0 01-21.65-14.136M360.955 99.058c-.614 1.072-1.537 2.785-2.723 3.97 4.838 4.575 7.224 7.64 8.948 14.112l-16.404 8.146c-4.63 4.436-9.256 8.872-13.882 13.307-6.09-3.28-7.609-5.798-10.557-12.048-3.43.909-6.683 1.783-9.516.746 1.797.014 2.903-.437 4.7-1.547 2.944-3.062 5.888-6.12 8.832-9.18 5.202-3.94 10.404-7.875 15.603-11.815 3.405-1.11 6.807-2.22 10.213-3.326 1.297-.537 3.485-1.827 4.786-2.365"/><path d="M376.075 115.392c-17.399 9.367-34.062 18.79-42.958 36.58 0-22.583 22.674-32.522 42.958-36.58M329.639 70.967c-12.918 8.809-22.053 26.582-20.905 43.909-4.21-15-2.72-29.177 10.203-39.536 2.18-1.06 4.359-2.118 6.54-3.18 1.387-.395 2.775-.794 4.162-1.193"/></g><path d="M354.33 204.693c2.671-1.453 7.52-3.45 10.19-4.904-2.747.465-7.671 1.474-10.418 1.935-7.338 1.239-8.202 3.004-9.34 10.228-.537 3.402-1.276 7.622-1.813 11.024 1.44-3.85 3.17-8.32 4.845-11.989 1.775-3.877 2.774-4.244 6.537-6.294zM218.206 18.66c5.764-8.65 9.086-11.462 17.958-16.941-12.048 2.902-14.344 5.132-17.958 16.94zm-1.897 19.053C226.397 17.429 234.037 9.962 255.16.002c-23.89 5.854-30.913 10.019-38.852 37.71zM.253 143.282c2.212-10.158 4.276-13.987 10.539-22.324C.634 128.054-.691 130.967.252 143.282zm226.144 169.98c-.305-2.466-.614-4.932-.92-7.397-.554-4.464-.533-8.091-.176-12.586l1.026-13.053c-1.269 4.422-3.8 8.843-5.066 13.265-.507 1.772-.926 3.2-1.166 4.526-18.904 3.863-37.672 4.102-56.583.731-1.207-7.001-2.674-14.298-3.909-19.524-.37 5.857-.132 22.046-.163 31.114-.024 7.023-.319 9.43-3.94 15.402-3.391 5.597-4.827 6.866-9.575 16.317.396 5.961.403 9.908-1.182 15.567-2.636 9.41-29.218 2.12-36.23.198-8.635-2.362-26.489-5.878-21.998-17.388 3.95-10.134 6.454-20.815 8.386-34.992-15.821-22.792-30.536-54.025-33.359-81.7-2.191-21.487-.877-34.714 3.774-47.858 7.366-20.825 17.672-38.851 34.215-53.368 22.31-19.577 43.166-27.44 75.817-32.409-7.852 8.788-15.623 18.086-24.089 28.053-8.573 10.088-13.667 20.28-19.108 31.316-7.522 15.245-7.36 21.043 2.608 34.426 8.59 11.532 13.226 16.723 16.979 28.004-3.1 6.388-4.224 11.781-5.268 20.5 10.518 11.496 18.335 19.375 28.545 21.803 10.019 2.379 18.384 1.918 27.345-2.663 19.903-10.176 38.321-23.316 60.773-23.857 10.387-25.538 9.336-46.873 4.349-71.579-3.406-16.875-4.772-32.852-5.83-50.054-4.213 17.715-5 33.293-1.88 50.942 3.77 21.265 6.697 44.761-3.78 63.45-20.301 1.554-37.7 13.903-55.997 23.381-7.356 3.812-15.013 4.18-23.156 1.946-7.557-2.074-12.655-7.075-20.794-16.463-.128-9.426 1.998-13.778 6.326-22.313 6.956-13.709 14.635-26.47 23.058-39.961-10.317 12.45-20.09 22.854-28.208 35.373-3.104-8.843-7.54-13.33-14.892-23.287-7.179-9.725-7.931-13.983-2.563-25.234 5.397-11.309 9.974-21.248 19.164-31.166 15.873-17.146 30.418-36.224 47.779-53.106 9.426-9.17 13.251-8.85 25.757-10.747 11.298-1.713 22.334-3.874 33.858-6.555-11.146 1.04-21.921 1.422-32.773 1.693-.11.003-.222.007-.336.007 10.678-13.636 16.872-21.231 34.212-28.767 42.69-18.54 69.817-20.545 103.353 7.643 8.69 7.307 16.282 14.4 25.097 20.704-3.197.274-5.95.846-9.592 2.275 4.432-.843 9.55-.007 14.15.836 1.293.836 2.618 1.654 3.98 2.455 6.219 3.666 9.75 5.688 13.96 11.552 4.445 6.194 8.152 12.384 11.42 19.21-2.144-.767-3.937-1.412-5.539-1.887a11.854 11.854 0 00-3.815-1.03 11.95 11.95 0 00-7.41 1.723c-.088.042-.174.08-.261.122-3.44 1.675-8.77 3.586-12.34 4.165 1.818.628 5.844.863 7.741.114.257-.104.514-.18.78-.242a11.892 11.892 0 00-1.588 4.9 11.877 11.877 0 001.273 6.617l.01.02c.323.76.77 1.46 1.263 1.963a95.18 95.18 0 00-5.011 2.033c7.955-1.214 15.13-1.422 22.895-.4.51 2.45 1.027 5.043 1.505 7.682-.964.077-1.92.15-2.881.226l-.236.02c-3.673-2.937-7.769-2.444-13.359-1.168-17.004 3.877-13.008 13.421-20.832 27.8 8.122-9.933 7.522-20.32 20.76-23.455 3.082-.731 5.184-1.644 7.272-1.331-3.76 1.89-7.013 5.025-8.3 8.663-3.634 10.258-1.376 18.904-5.368 28.486 4.946-8.566 5.244-16.928 9.662-25.937 1.588-3.24 7.48-8.42 11.101-8.5.992-.021 1.984-.046 2.976-.066.874 5.705 1.4 11.364 1.064 16.063-.617 8.57-2.843 21.29-4.175 26.156 4.477-5.757 6.516-17.95 8.486-26.534 2.046-8.937 1.53-19.663-.264-29.262-2.458-13.175 11.108-11.032 18.988-17.243 5.788-4.564 9.772-11.854 15.082-17.018 5.268-5.119 13.556 2.404 15.627 7.411 8.982 21.727 13.074 55.911 10.702 77.815-2.663 24.578-14.534 51.41-36.213 63.51-27.633 15.422-60.218 5.999-87.67-3.25-5.862-1.973-9.936-4.852-15.086-8.098 1.4 6.315 2.039 13.002.173 19.306-2.962 10.009-7.747 26.381 5.84 29.402 5.17 1.148 7.515.981 14.819-2.785-5.91 1.335-8.889 1.01-12.95.257-3.68-.676-5.632-3.014-6.662-5.77 1.287.929 3.385 1.431 6.968 2.295 10.07 2.428 19.67-2.42 21.546-9.405 1.096-4.082.909-6.225 3.229-11.784 2.08.641 4.238 1.23 6.447 1.765-1.245 4.064-2.494 8.136-3.742 12.204-3.236 10.56-15.849 19.074-26.985 18.88-10.296-.184-16.823-6.631-23.929-12.954a6326.133 6326.133 0 00-14.277-12.654c-12.811-4.04-23.083-8.767-34.972-17.57 8.462 9.947 14.202 15.45 26.003 20.4-1.716 17.506-7.8 30.272-12.987 47.026-2.348 7.577-20.881 37.932-26.017 40.894-3.666 2.109-26.606 21.432-30.92 23.981-3.216 4.27-6.035 10.168-10.87 12.72-14.721 7.786-24.185-7.119-32.11-19.711-3.606-5.736-13.625-22.258-4.893-26.888 8.26-4.373 12.884-7.497 21.308-13.029 1.238 2.258 3.363 4.432 4.747 6.686l-.003.004zm51.187 26.693c-7.456 6.024-19.99 16.681-22.424 18.016-4.404 6.576-4.945 10.644-12.002 14.462-21.003 11.364-32.149-1.814-44.581-20.975-5.924-9.13-18.877-29.973-5.13-37.038 5.792-2.979 10.179-5.209 14.559-7.758-14.42 1.79-28.573 1.81-43.287-.405.26 1.775.485 3.468.669 5.014.957 8.043 1.273 10.508-3.097 16.987-3.184 4.723-4.411 6.09-8.257 14.673.7 6.977.398 10.906-1.571 18.213-4.377 16.241-34.705 7.339-47.064 3.996-14.871-4.02-36.116-7.765-27.401-26.88 2.043-4.481 3.648-9.063 4.855-13.429-13.001 5.754-31.07-6.454-39.677-15.082-8.185-8.205-12.63-17.735-14.18-26.981-1.319-7.872-.112-7.834 5.506-13.397 5.137-5.087 10.273-10.179 15.409-15.263 2.077-5.645 4.154-11.288 6.228-16.93-.808-4.217-1.411-8.42-1.768-12.586-1.492-17.36-.992-29.724 1.49-41.092-9.047 3.53-19.427 1.876-24.046-7.723-1.755-3.652-2.802-7.37-4.127-12.766-20.18-19.445 17.638-44.934 28.67-46.852-1.263 3.582-2.643 6.863-3.86 10.112 7.484 3.874 6.565 14.91 4.976 22.015-2.69-3.395-4.179-7.837-8.136-8.028-.582 8.035-.482 16.917-6.755 21.633 1.855 4.966 1.758 4.97 7.04 2.941 7.498-2.889 13.144-9.319 18.824-15.596 6.118-11.916 13.959-22.517 24.748-32.082 26.509-23.503 51.569-31.191 91.915-37.624 5.372-5.604 10.921-11.011 16.879-16.269 8.07-7.123 13.31-8.6 20.943-8.999 12.634-16.896 22.57-28.663 43.163-37.33C309.26-1.235 339.016-2.113 373.66 26.457c11.452 9.436 21.214 19.386 33.8 27.265 6.367 3.988 10.917 6.853 15.744 12.603 6.073 7.234 11.032 14.472 14.482 23.783 4.46-1.834 9.544-3.565 13.65-7.075 5.303-4.529 8.677-12.113 13.585-17.09 6.52-6.603 21.387 1.37 24.678 7.671 11.198 21.43 15.78 60.923 13.4 84.408-2.944 29.03-14.909 56.476-40.485 70.126-17.392 9.277-40.732 10.144-60.707 6.367-1.297 4.259-2.587 8.518-3.881 12.78-3.884 12.762-19.046 23.197-32.29 23.821-12.718.6-19.608-5.961-27.949-13.996-4.377-4.214-8.757-8.428-13.13-12.645a97.16 97.16 0 01-1.103 8.292c3.444 6.801 5.098 12.783 8.046 19.792 3.246 7.723 4.824 12.794 5.046 21.058.198 7.335.392 14.673.59 22.011 3.273 5.812 3.558 7.227 3.083 13.882-1.01 14.022-8.733 15.36-21.602 15.277-4.29-.024-20.475.073-24.602-.222-8.202-.593-13.609-1.22-16.435-4.609h.003zm43.399-76.493c-2.59 9.245-6.07 17.974-9.246 27.98-3.007 9.47-18.429 36.972-27.505 43.637 1.77 1.314 5.012 1.831 10.786 2.327 4.089.354 20.197.43 24.245.5 8.905.156 12.287-.514 13.185-10.658.44-4.962.052-5.892-2.431-10.244l-.66-23.288c-.204-7.359-1.619-11.597-4.511-18.456-1.73-4.103-2.67-7.935-3.863-11.798zM49.703 136.436c1.997-.225 3.235.822 4.782 2.369-.288-3.694-.968-6.43-3.562-7.942-.18.603-.35 1.2-.513 1.81a30.152 30.152 0 00-.707 3.763zm12.56 26.68a195.143 195.143 0 00-4.03 11.527c-.207.655-.408 1.314-.603 1.97-7.605 3.225-17.603 5.275-21.432-2.716-1.859-3.88-2.91-7.685-4.262-12.589-12.526-12.973 6.197-30.105 16.393-36.247-1.477 3.17-2.524 5.573-3.239 8.046-3.1 10.716 1.405 20.277-8.323 28.045 4.57 9.225 4.363 12.901 14.996 8.64 4.102-1.645 7.484-3.95 10.5-6.677zm-2.93 87.313c5.768 19.934 15.582 39.525 26.464 55.994v.284c-.683 2.834-1.47 5.594-3.124 7.807-7.779 10.407-27.567-4.87-33.296-10.716-6.26-6.395-10.45-13.966-11.448-21.065-.725-5.181-.021-5.306 3.593-8.968 4.869-4.931 9.745-9.866 14.61-14.794 1.068-2.848 2.137-5.695 3.201-8.542zm368.37-160.017a12.114 12.114 0 012.625 3.846c.337-.308.694-.6 1.072-.877-.458-1.027-.919-2.04-1.394-3.038-.787.017-1.554.042-2.303.07zm-95.286 35.86a15.583 15.583 0 01-1.516-6.59c-3.735 2.983-7.792 5.81-12.006 7.443 5.816-5.192 13.716-17.441 19.442-21.308 6.495-4.39 15.31-3.534 22.885-7.04-2.587 2.351-5.9 4.245-9.274 6.045 3.715 1.363 6.93 4.113 8.76 7.955a15.563 15.563 0 011.422 5.005c5.088-1.672 10.085-2.463 14.306-2.4-15.096 4.238-31.157 14.15-42.226 27.272 1.241-3.423 2.982-6.51 5.073-9.27a15.567 15.567 0 01-6.863-7.113h-.003zm-70.009-54.615c-8.333 3.253-15.939 5.695-24.064 7.734-7.418 9.749-11.933 14.795-13.64 27.858-2.008-12.848-2.427-15.234 3.295-24.827-1.658.843-3.201 2.001-5.41 3.888-7.99 6.832-18.405 33.68-22.57 43.28 2.643-11.552 10.914-40.433 19.428-48.85 5.6-5.535 6.87-5.41 14.77-6.156 9.405-.89 18.793-1.862 28.191-2.927zm174.003 28.015c6.763.638 10.63 1.682 16.685-1.311 11.288-5.587 19.594-14.704 24.98-25.611-3.295 13.012-9.926 24.068-23.676 28.971-6.756 2.407-11.108-.076-17.989-2.05zm-129.79 1.27c2.55-11.282 7.075-22.154 24.6-30.564-23.23 5.816-27.585 15.568-24.6 30.563zM5.449 161.706c1.994-22.562 6.38-32.304 22.413-49.287-20.107 14.17-25.125 20.61-22.413 49.287"/><path d="M335.43 129.923c-1.553-3.246-.163-7.158 3.09-8.704 3.253-1.55 7.176-.167 8.726 3.083.149.305.263.624.36.94-3.107 2.306-5.958 5.025-8.344 8.17-1.612-.645-3.034-1.82-3.832-3.489M408.154 101.798c.26-2.691 2.553-4.672 5.244-4.412a4.92 4.92 0 014.414 5.352 4.883 4.883 0 01-.443 1.605c-2.463.416-4.922 1.141-7.46 2.07-1.061-1.085-1.904-3.065-1.755-4.615" fill="#edd749"/></svg>