<?xml version="1.0" encoding="UTF-8" standalone="no" ?>
<!DOCTYPE svg PUBLIC "-//W3C//DTD SVG 1.1//EN" "http://www.w3.org/Graphics/SVG/1.1/DTD/svg11.dtd">
<svg xmlns="http://www.w3.org/2000/svg" xmlns:xlink="http://www.w3.org/1999/xlink" version="1.1" width="1080" height="1080" viewBox="0 0 1080 1080" xml:space="preserve">
<desc>Created with Fabric.js 5.2.4</desc>
<defs>
</defs>
<rect x="0" y="0" width="100%" height="100%" fill="transparent"></rect>
<g transform="matrix(1 0 0 1 540 540)" id="568070b5-37c6-408c-bc5c-58c112b54e6c"  >
<rect style="stroke: none; stroke-width: 1; stroke-dasharray: none; stroke-linecap: butt; stroke-dashoffset: 0; stroke-linejoin: miter; stroke-miterlimit: 4; fill: rgb(255,255,255); fill-rule: nonzero; opacity: 1; visibility: hidden;" vector-effect="non-scaling-stroke"  x="-540" y="-540" rx="0" ry="0" width="1080" height="1080" />
</g>
<g transform="matrix(1 0 0 1 540 540)" id="83d5c9fa-8f91-485f-806e-ea77faab6b77"  >
</g>
<g transform="matrix(1 0 0 1 540 540)" id="4ea934e4-1c58-446c-b784-f1b44903fa33"  >
<path style="stroke: rgb(0,0,0); stroke-width: 0; stroke-dasharray: none; stroke-linecap: butt; stroke-dashoffset: 0; stroke-linejoin: miter; stroke-miterlimit: 4; fill: rgb(173,216,230); fill-rule: nonzero; opacity: 1;" vector-effect="non-scaling-stroke"  transform=" translate(-256, -256)" d="M 336 256 C 315.44 256 295.56 246.82 280 230.16 C 264.87 213.91 255.63 192.24 254 169.16 C 252.26 144.54 259.77 121.9 275.14 105.4 C 290.51 88.9 312 80 336 80 C 359.83 80 381.38 89.06 396.7 105.52 C 412.17 122.14 419.7 144.74 417.96 169.15 C 416.28999999999996 192.26 407.06 213.92000000000002 391.96 230.15 C 376.44 246.82 356.57 256 336 256 z M 402 168 z M 467.83 432 L 204.18 432 C 195.58914073063397 432.04598315213804 187.46281951883708 428.10471736441656 182.18 421.33 C 176.57837084328042 413.98852654707775 174.64085335195367 404.48879725024943 176.92000000000002 395.53999999999996 C 185.34 361.72999999999996 206.20000000000002 333.68999999999994 237.24 314.46 C 264.79 297.4 299.86 288 336 288 C 372.85 288 407 297 434.71 314.05 C 465.82 333.18 486.71 361.38 495.09 395.6 C 497.34149531538014 404.55496119774125 495.38252425379966 414.0478698382571 489.77 421.38 C 484.4928678877816 428.1228600803966 476.3922634254378 432.043936625068 467.83 432 z M 147 260 C 111.81 260 80.87 227.28 78 187.07 C 76.58 166.47 83 147.42 96 133.45 C 108.86 119.61999999999999 127 111.99999999999999 147 111.99999999999999 C 167 111.99999999999999 185 119.65999999999998 197.93 133.57 C 211.03 147.65 217.43 166.66 215.93 187.09 C 213.06 227.29000000000002 182.13 260 147 260 z M 212.66 291.45 C 195.07 282.84999999999997 172.24 278.55 147.01 278.55 C 117.54999999999998 278.55 88.94 286.23 66.44 300.17 C 40.92999999999999 316 23.769999999999996 339.05 16.839999999999996 366.88 C 14.785433879655209 374.9895717233 16.549670574688186 383.59344838216646 21.630000000000006 390.24 C 26.452392367449896 396.4307752002297 33.87271426810705 400.0356702599815 41.71999999999999 400 L 152.72 400 C 156.58626842317187 399.99944121790566 159.89890455251984 397.2340003831132 160.59 393.43 C 160.70000000000002 392.8 160.84 392.17 161 391.55 C 169.48 357.49 189.35 328.71000000000004 218.71 307.73 C 220.90389979317925 306.1485726024987 222.1502823649988 303.5657665393173 222.02317798539633 300.86429409030626 C 221.89607360579387 298.16282164129524 220.41269168660833 295.70845109934857 218.08 294.34000000000003 C 216.51000000000002 293.42 214.71 292.45000000000005 212.66000000000003 291.45000000000005 z" stroke-linecap="round" />
</g>
</svg>