<?xml version="1.0" encoding="UTF-8" standalone="no" ?>
<!DOCTYPE svg PUBLIC "-//W3C//DTD SVG 1.1//EN" "http://www.w3.org/Graphics/SVG/1.1/DTD/svg11.dtd">
<svg xmlns="http://www.w3.org/2000/svg" xmlns:xlink="http://www.w3.org/1999/xlink" version="1.1" width="1080" height="1080" viewBox="0 0 1080 1080" xml:space="preserve">
<desc>Created with Fabric.js 5.2.4</desc>
<defs>
</defs>
<rect x="0" y="0" width="100%" height="100%" fill="transparent"></rect>
<g transform="matrix(1 0 0 1 540 540)" id="568070b5-37c6-408c-bc5c-58c112b54e6c"  >
<rect style="stroke: none; stroke-width: 1; stroke-dasharray: none; stroke-linecap: butt; stroke-dashoffset: 0; stroke-linejoin: miter; stroke-miterlimit: 4; fill: rgb(255,255,255); fill-rule: nonzero; opacity: 1; visibility: hidden;" vector-effect="non-scaling-stroke"  x="-540" y="-540" rx="0" ry="0" width="1080" height="1080" />
</g>
<g transform="matrix(1 0 0 1 540 540)" id="83d5c9fa-8f91-485f-806e-ea77faab6b77"  >
</g>
<g transform="matrix(1.5 0 0 1.5 540 540)"  >
<g style="" vector-effect="non-scaling-stroke"   >
		<g transform="matrix(0.56 0 0 0.56 0 0)"  >
<circle style="stroke: none; stroke-width: 1; stroke-dasharray: none; stroke-linecap: butt; stroke-dashoffset: 0; stroke-linejoin: miter; stroke-miterlimit: 4; fill: rgb(173,216,230); fill-rule: nonzero; opacity: 1;" vector-effect="non-scaling-stroke"  cx="0" cy="0" r="48" />
</g>
		<g transform="matrix(0.56 0 0 0.56 0 0)"  >
<path style="stroke: none; stroke-width: 1; stroke-dasharray: none; stroke-linecap: butt; stroke-dashoffset: 0; stroke-linejoin: miter; stroke-miterlimit: 4; fill: rgb(173,216,230); fill-rule: nonzero; opacity: 1;" vector-effect="non-scaling-stroke"  transform=" translate(-256, -256)" d="M 470.39 300 L 469.91999999999996 299.62 L 438.35999999999996 274.87 C 434.30572052635097 271.6627323352677 432.0368457190518 266.70468296128456 432.25999999999993 261.54 L 432.25999999999993 249.98000000000002 C 432.05684656814236 244.84809843464745 434.32959866739105 239.93062171581477 438.36999999999995 236.76000000000002 L 469.92 212 L 470.39000000000004 211.62 C 480.43998012938556 203.24794513761447 482.93844258475445 188.824617810519 476.29 177.56 L 433.58000000000004 103.66 C 433.53083437993706 103.59027325897782 433.48736068230454 103.51670238606127 433.45000000000005 103.44 C 426.7724192612263 92.34236184655374 413.1263782228984 87.59042767912369 401 92.14000000000001 L 400.65 92.27 L 363.54999999999995 107.19999999999999 C 358.79967959698183 109.12068839761803 353.415649086293 108.64070226363125 349.0799999999999 105.90999999999998 Q 344.1599999999999 102.80999999999999 339.0799999999999 100.04999999999998 C 334.626907660078 97.63521142870027 331.5867260162957 93.24755000873606 330.88999999999993 88.22999999999999 L 325.29999999999995 48.639999999999986 L 325.17999999999995 47.91999999999999 C 322.6717372929989 35.28094006241254 311.6448645490977 26.132225053089538 298.76 25.999999999999996 L 213.24 26 C 200.15301749400922 26.041876820161097 188.99217424276975 35.48956227933887 186.79000000000002 48.390000000000015 L 186.70000000000002 48.95 L 181.13000000000002 88.62 C 180.43719225385396 93.62223143676064 177.42348075784338 98.00378984793471 173.00000000000003 100.44 C 169.60350242219346 102.26937945265495 166.2683510679961 104.2104375407978 163 106.25999999999999 C 158.6723143153718 108.97388564989176 153.30518915223746 109.4462521749909 148.57000000000002 107.52999999999999 L 111.44000000000003 92.52999999999999 L 111.09000000000003 92.38999999999999 C 98.94539388768122 87.83519846252346 85.28057808565057 92.60610397961176 78.61000000000004 103.72999999999999 L 78.48000000000005 103.94999999999999 L 35.71000000000004 177.89999999999998 C 29.051568309993954 189.17611480273766 31.55005275408527 203.6165079457061 41.61000000000005 212 L 42.08000000000004 212.37999999999997 L 73.64000000000004 237.12999999999997 C 77.694279473649 240.33726766473222 79.96315428094813 245.2953170387154 79.74000000000004 250.45999999999998 L 79.74000000000004 262.02 C 79.94315343185764 267.15190156535255 77.67040133260895 272.06937828418523 73.63000000000004 275.24 L 42.08 300 L 41.61 300.38 C 31.56001987061445 308.75205486238553 29.061557415245588 323.175382189481 35.71 334.44 L 78.42 408.34000000000003 C 78.46916562006298 408.4097267410222 78.51263931769549 408.48329761393876 78.55 408.56000000000006 C 85.22758073877375 419.6576381534463 98.87362177710162 424.40957232087635 111 419.86000000000007 L 111.35 419.7300000000001 L 148.42 404.80000000000007 C 153.1703204030181 402.8793116023821 158.5543509137069 403.35929773636883 162.89 406.0900000000001 Q 167.80999999999997 409.2000000000001 172.89 411.9500000000001 C 177.34309233992187 414.3647885712998 180.38327398370419 418.75244999126403 181.07999999999998 423.7700000000001 L 186.64 463.3600000000001 L 186.76 464.08000000000015 C 189.27287563316 476.74093718237367 200.33251888924815 485.89604972668826 213.23999999999998 486 L 298.76 486 C 311.84698250599075 485.95812317983894 323.00782575723025 476.5104377206612 325.21 463.61 L 325.29999999999995 463.05 L 330.86999999999995 423.38 C 331.5737310773838 418.36799772450274 334.60733232413924 413.984481008531 339.04999999999995 411.56 C 342.46999999999997 409.72 345.80999999999995 407.77 349.04999999999995 405.74 C 353.3776856846282 403.02611435010823 358.7448108477625 402.5537478250091 363.47999999999996 404.47 L 400.60999999999996 419.42 L 400.96 419.56 C 413.1045066802695 424.1233669910465 426.774830930892 419.3505382656137 433.44 408.22 C 433.4795998454542 408.1445236796289 433.5229885085234 408.0710967113579 433.57 408 L 476.28 334.11 C 482.9508904545986 322.834761464841 480.45578966518394 308.3852049407433 470.39 300 z M 335.90999999999997 259.76 C 333.8803591605444 302.9207487366324 297.9452085966118 336.67076639870544 254.7420915179004 335.99227680626143 C 211.53897443918902 335.3137872138174 176.68134796697976 300.45199415943364 176.0080222014015 257.2487962933345 C 175.33469643582325 214.04559842723546 209.0890089802799 178.11448206698458 252.25 176.08999999999997 C 274.7285801385211 175.10031791607366 296.5892714406317 183.59762083793117 312.4984751381968 199.50872618547209 C 328.4076788357619 215.41983153301297 336.9023688132531 237.2815383130952 335.90999999999997 259.76 z" stroke-linecap="round" />
</g>
</g>
</g>
</svg>